<svg width="320" height="320" viewBox="0 0 320 320" fill="none" xmlns="http://www.w3.org/2000/svg">
<g clip-path="url(#clip0_1411_2)">
<g clip-path="url(#clip1_1411_2)">
<path fill-rule="evenodd" clip-rule="evenodd" d="M313.727 124.872L202.017 225.676L242.375 81.0867L313.727 124.872Z" fill="#0A0908"/>
<path fill-rule="evenodd" clip-rule="evenodd" d="M222.65 141.921L239.659 80.3486L196.336 82.468L222.65 141.921Z" fill="#FCCA46"/>
<path fill-rule="evenodd" clip-rule="evenodd" d="M238.866 314.143L111.18 233.428L262.616 234.118L238.866 314.143Z" fill="#0A0908"/>
<path fill-rule="evenodd" clip-rule="evenodd" d="M198.795 231.498L262.637 231.445L246.675 192.031L198.795 231.498Z" fill="#FCCA46"/>
<path fill-rule="evenodd" clip-rule="evenodd" d="M39.1729 296.886L85.2937 153.948L123.167 299.205L39.1729 296.886Z" fill="#0A0908"/>
<path fill-rule="evenodd" clip-rule="evenodd" d="M109.394 235.62L125.158 297.107L160.841 269.649L109.394 235.62Z" fill="#FCCA46"/>
<path fill-rule="evenodd" clip-rule="evenodd" d="M-0.00357819 109.487L150.714 98.8481L29.0864 187.56L-0.00357819 109.487Z" fill="#0A0908"/>
<path fill-rule="evenodd" clip-rule="evenodd" d="M82.2898 152.167L30.5783 189.791L63.9318 211.249L82.2898 152.167Z" fill="#FCCA46"/>
<path fill-rule="evenodd" clip-rule="evenodd" d="M159.205 4.64325L219.917 141.939L94.6269 57.8537L159.205 4.64325Z" fill="#0A0908"/>
<path fill-rule="evenodd" clip-rule="evenodd" d="M146.436 96.1616L93.6582 60.1875L83.8163 100.437L146.436 96.1616Z" fill="#FCCA46"/>
</g>
</g>
<defs>
<clipPath id="clip0_1411_2">
<rect width="320" height="320" fill="white"/>
</clipPath>
<clipPath id="clip1_1411_2">
<rect width="320" height="320" fill="white"/>
</clipPath>
</defs>
</svg>
