<svg width="510" height="240" viewBox="0 0 510 240" fill="none" xmlns="http://www.w3.org/2000/svg">
<g clip-path="url(#clip0_296_48)">
<g clip-path="url(#clip1_296_48)">
<path fill-rule="evenodd" clip-rule="evenodd" d="M233.299 93.654L150.227 169.257L180.239 60.8151L233.299 93.654Z" fill="#0A0908"/>
<path fill-rule="evenodd" clip-rule="evenodd" d="M165.571 106.441L178.219 60.2615L146.002 61.851L165.571 106.441Z" fill="#FCCA46"/>
<path fill-rule="evenodd" clip-rule="evenodd" d="M177.629 235.607L82.6772 175.072L195.291 175.588L177.629 235.607Z" fill="#0A0908"/>
<path fill-rule="evenodd" clip-rule="evenodd" d="M147.831 173.624L195.306 173.584L183.437 144.024L147.831 173.624Z" fill="#FCCA46"/>
<path fill-rule="evenodd" clip-rule="evenodd" d="M29.1303 222.665L63.4274 115.461L91.5911 224.404L29.1303 222.665Z" fill="#0A0908"/>
<path fill-rule="evenodd" clip-rule="evenodd" d="M81.3495 176.715L93.0718 222.83L119.607 202.237L81.3495 176.715Z" fill="#FCCA46"/>
<path fill-rule="evenodd" clip-rule="evenodd" d="M-0.00274658 82.1156L112.076 74.1362L21.6296 140.67L-0.00274658 82.1156Z" fill="#0A0908"/>
<path fill-rule="evenodd" clip-rule="evenodd" d="M61.1936 114.125L22.7391 142.343L47.5419 158.437L61.1936 114.125Z" fill="#FCCA46"/>
<path fill-rule="evenodd" clip-rule="evenodd" d="M118.39 3.48242L163.538 106.454L70.3679 43.3903L118.39 3.48242Z" fill="#0A0908"/>
<path fill-rule="evenodd" clip-rule="evenodd" d="M108.895 72.1212L69.6475 45.1407L62.3287 75.3281L108.895 72.1212Z" fill="#FCCA46"/>
</g>
<path d="M305.077 75.6668V87.0325C303.975 88.4102 302.322 89.7879 300.117 91.1655C297.959 92.5432 295.365 93.6912 292.334 94.6097C289.303 95.4822 285.928 95.9185 282.208 95.9185C276.973 95.9185 272.404 94.9082 268.5 92.8876C264.597 90.8211 261.566 87.9051 259.408 84.1395C257.249 80.3738 256.17 75.9194 256.17 70.7761C256.17 65.6329 257.226 61.2014 259.339 57.4817C261.497 53.762 264.551 50.8919 268.5 48.8713C272.495 46.8048 277.202 45.7716 282.621 45.7716C285.147 45.7716 287.604 45.9553 289.992 46.3226C292.38 46.6441 294.584 47.0803 296.604 47.6314C298.625 48.1825 300.301 48.8254 301.633 49.5601L301.771 61.3391H301.151C300.278 58.2164 299.015 55.7367 297.362 53.8998C295.709 52.017 293.78 50.6852 291.576 49.9045C289.418 49.078 287.122 48.6647 284.688 48.6647C280.968 48.6647 277.799 49.5831 275.182 51.42C272.61 53.2109 270.658 55.7826 269.327 59.1349C268.041 62.4872 267.398 66.5054 267.398 71.1894C267.398 75.5979 267.995 79.4554 269.189 82.7618C270.429 86.0223 272.22 88.548 274.562 90.3389C276.904 92.084 279.751 92.9795 283.103 93.0254C284.802 93.0254 286.433 92.7728 287.994 92.2677C289.601 91.7166 291.002 90.9359 292.196 89.9256C293.39 88.9153 294.239 87.6755 294.745 86.2059L294.813 75.6668C294.813 73.6003 293.642 72.5671 291.3 72.5671H290.198V71.8783H309.554V72.5671H308.521C306.133 72.5671 304.985 73.6003 305.077 75.6668ZM326.744 46.7359H335.63C337.696 46.7359 339.717 46.9655 341.692 47.4248C343.666 47.884 345.411 48.6187 346.927 49.629C348.488 50.6393 349.728 51.971 350.646 53.6242C351.565 55.2774 352.024 57.321 352.024 59.7548C352.024 61.6836 351.611 63.6123 350.784 65.541C350.004 67.4238 348.787 69.0541 347.133 70.4317C345.48 71.7635 343.345 72.5671 340.727 72.8426C342.197 73.3018 343.529 74.1284 344.723 75.3224C345.962 76.5164 346.973 77.7104 347.753 78.9043C347.799 78.9962 348.052 79.4095 348.511 80.1442C349.016 80.879 349.613 81.7974 350.302 82.8996C351.037 83.9558 351.795 85.0349 352.575 86.1371C353.356 87.2392 354.068 88.2036 354.711 89.0302C355.721 90.2701 356.639 91.2803 357.466 92.061C358.292 92.7958 359.165 93.3468 360.083 93.7142C361.002 94.0357 362.058 94.2193 363.252 94.2653V94.9541H356.502C354.022 94.9541 351.772 94.7475 349.751 94.3342C347.73 93.8749 345.939 93.1172 344.378 92.061C342.817 91.0048 341.462 89.5812 340.314 87.7903C339.947 87.2392 339.533 86.5504 339.074 85.7238C338.661 84.8512 338.225 83.9328 337.765 82.9684C337.306 82.0041 336.847 81.0856 336.388 80.2131C335.974 79.2947 335.607 78.4681 335.286 77.7333C334.964 76.9986 334.734 76.4245 334.597 76.0112C334 74.5417 333.288 73.4396 332.461 72.7049C331.681 71.9701 330.831 71.5338 329.913 71.3961V70.7072C330.05 70.7072 330.326 70.7072 330.739 70.7072C331.153 70.7072 331.589 70.7072 332.048 70.7072C333.288 70.7072 334.482 70.4547 335.63 69.9495C336.824 69.4444 337.88 68.6178 338.799 67.4697C339.717 66.3217 340.36 64.7374 340.727 62.7168C340.819 62.3035 340.888 61.8213 340.934 61.2703C341.026 60.7192 341.049 60.0992 341.003 59.4104C340.865 56.104 340.038 53.6931 338.523 52.1777C337.008 50.6163 335.125 49.8127 332.875 49.7668C332.232 49.7209 331.52 49.7209 330.739 49.7668C330.004 49.7668 329.316 49.7668 328.673 49.7668C328.076 49.7668 327.662 49.7668 327.433 49.7668C327.433 49.7209 327.364 49.4683 327.226 49.0091C327.134 48.5039 327.02 47.9988 326.882 47.4936C326.79 46.9885 326.744 46.7359 326.744 46.7359ZM327.64 46.7359V94.9541H317.307V46.7359H327.64ZM317.514 89.9256V94.9541H312.003V94.2653C312.049 94.2653 312.187 94.2653 312.416 94.2653C312.692 94.2653 312.853 94.2653 312.899 94.2653C314.092 94.2653 315.103 93.852 315.929 93.0254C316.802 92.1529 317.261 91.1196 317.307 89.9256H317.514ZM317.514 51.7644H317.307C317.261 50.5704 316.802 49.5601 315.929 48.7335C315.103 47.861 314.092 47.4248 312.899 47.4248C312.853 47.4248 312.692 47.4248 312.416 47.4248C312.187 47.4248 312.049 47.4248 312.003 47.4248V46.7359H317.514V51.7644ZM327.433 89.9256H327.64C327.64 91.1196 328.076 92.1529 328.948 93.0254C329.821 93.852 330.854 94.2653 332.048 94.2653C332.14 94.2653 332.301 94.2653 332.53 94.2653C332.76 94.2653 332.875 94.2653 332.875 94.2653V94.9541H327.433V89.9256ZM383.941 45.3583L406.466 94.5408H394.067L379.739 58.6527L383.941 45.3583ZM369.131 89.9256C368.764 90.8441 368.695 91.6248 368.925 92.2677C369.154 92.9106 369.545 93.4157 370.096 93.7831C370.647 94.1045 371.198 94.2653 371.749 94.2653H372.369V94.9541H357.628V94.2653C357.628 94.2653 357.743 94.2653 357.972 94.2653C358.156 94.2653 358.248 94.2653 358.248 94.2653C359.304 94.2653 360.383 93.9438 361.485 93.3009C362.633 92.6121 363.575 91.487 364.31 89.9256H369.131ZM383.941 45.3583L384.217 53.762L367.134 94.7475H362.105L379.946 54.382C380.084 54.1064 380.313 53.6013 380.635 52.8665C381.002 52.0858 381.37 51.2133 381.737 50.249C382.15 49.2846 382.518 48.3662 382.839 47.4936C383.161 46.5752 383.321 45.8634 383.321 45.3583H383.941ZM391.174 78.5599V81.453H370.922V78.5599H391.174ZM392.207 89.9256H404.262C405.042 91.487 405.984 92.6121 407.086 93.3009C408.188 93.9438 409.267 94.2653 410.323 94.2653C410.323 94.2653 410.415 94.2653 410.599 94.2653C410.783 94.2653 410.875 94.2653 410.875 94.2653V94.9541H388.97V94.2653H389.59C390.508 94.2653 391.312 93.8979 392.001 93.1631C392.689 92.3825 392.758 91.3033 392.207 89.9256ZM456.446 74.8402L457.065 86.6881C456.055 88.3872 454.7 89.9256 453.001 91.3033C451.302 92.681 449.19 93.806 446.664 94.6786C444.138 95.5052 441.153 95.9185 437.709 95.9185C432.107 95.8725 427.193 94.8623 422.968 92.8876C418.789 90.867 415.552 87.9969 413.256 84.2772C410.96 80.5575 409.812 76.0572 409.812 70.7761C409.812 65.6329 410.937 61.2014 413.187 57.4817C415.437 53.7161 418.652 50.823 422.831 48.8024C427.055 46.7818 432.084 45.7716 437.916 45.7716C441.59 45.7716 444.873 46.1389 447.766 46.8737C450.705 47.6084 453.162 48.5039 455.137 49.5601L455.206 61.3391H454.586C453.346 56.7929 451.325 53.5554 448.524 51.6266C445.723 49.652 442.439 48.6647 438.674 48.6647C435 48.6647 431.854 49.5601 429.237 51.3511C426.619 53.1421 424.599 55.6678 423.175 58.9282C421.751 62.1887 421.04 66.0921 421.04 70.6384C421.04 75.1847 421.705 79.111 423.037 82.4174C424.415 85.7238 426.344 88.2954 428.823 90.1323C431.349 91.9692 434.311 92.9335 437.709 93.0254C441.245 93.0254 444.23 92.4513 446.664 91.3033C449.098 90.1552 451.05 88.2495 452.519 85.586C454.035 82.9225 455.16 79.3406 455.894 74.8402H456.446ZM478.787 46.7359V94.9541H468.455V46.7359H478.787ZM496.972 91.9921L498.626 94.9541H478.581V91.9921H496.972ZM494.424 69.7429V72.636H478.581V69.7429H494.424ZM497.799 46.7359V49.6979H478.581V46.7359H497.799ZM502.001 80.8331L498.832 94.9541H485.331L487.811 91.9921C490.107 91.9921 492.128 91.5559 493.873 90.6833C495.618 89.7649 497.11 88.4791 498.35 86.8259C499.59 85.1268 500.577 83.1292 501.312 80.8331H502.001ZM494.424 72.4982V79.111H493.735V78.5599C493.735 76.8608 493.184 75.4602 492.082 74.3581C490.98 73.2559 489.579 72.6819 487.88 72.636V72.4982H494.424ZM494.424 63.2679V69.8807H487.88V69.7429C489.579 69.697 490.98 69.1229 492.082 68.0208C493.184 66.8728 493.735 65.4492 493.735 63.7501V63.2679H494.424ZM497.799 49.4913V57.5506H497.11V56.724C497.11 54.6116 496.467 52.9124 495.182 51.6266C493.942 50.3408 492.242 49.6749 490.084 49.629V49.4913H497.799ZM497.799 45.496V47.4936L489.395 46.7359C490.406 46.7359 491.462 46.667 492.564 46.5293C493.712 46.3915 494.768 46.2308 495.733 46.0471C496.697 45.8634 497.386 45.6797 497.799 45.496ZM468.662 89.9256V94.9541H463.151V94.2653C463.151 94.2653 463.289 94.2653 463.564 94.2653C463.886 94.2653 464.046 94.2653 464.046 94.2653C465.24 94.2653 466.251 93.852 467.077 93.0254C467.95 92.1529 468.409 91.1196 468.455 89.9256H468.662ZM468.662 51.7644H468.455C468.409 50.5704 467.95 49.5601 467.077 48.7335C466.251 47.861 465.24 47.4248 464.046 47.4248C464.046 47.4248 463.886 47.4248 463.564 47.4248C463.289 47.4248 463.151 47.4248 463.151 47.4248V46.7359H468.662V51.7644Z" fill="white"/>
<path d="M279.701 117.236L302.226 166.419H289.827L275.499 130.531L279.701 117.236ZM264.891 161.804C264.524 162.722 264.455 163.503 264.685 164.146C264.914 164.788 265.305 165.294 265.856 165.661C266.407 165.982 266.958 166.143 267.509 166.143H268.129V166.832H253.388V166.143C253.388 166.143 253.503 166.143 253.732 166.143C253.916 166.143 254.008 166.143 254.008 166.143C255.064 166.143 256.143 165.822 257.245 165.179C258.393 164.49 259.335 163.365 260.069 161.804H264.891ZM279.701 117.236L279.977 125.64L262.894 166.625H257.865L275.706 126.26C275.844 125.984 276.073 125.479 276.395 124.744C276.762 123.964 277.129 123.091 277.497 122.127C277.91 121.163 278.278 120.244 278.599 119.372C278.92 118.453 279.081 117.741 279.081 117.236H279.701ZM286.934 150.438V153.331H266.682V150.438H286.934ZM287.967 161.804H300.022C300.802 163.365 301.744 164.49 302.846 165.179C303.948 165.822 305.027 166.143 306.083 166.143C306.083 166.143 306.175 166.143 306.359 166.143C306.543 166.143 306.634 166.143 306.634 166.143V166.832H284.73V166.143H285.35C286.268 166.143 287.072 165.776 287.76 165.041C288.449 164.26 288.518 163.181 287.967 161.804ZM322.532 118.614H331.418C333.485 118.614 335.505 118.843 337.48 119.303C339.455 119.762 341.2 120.497 342.715 121.507C344.277 122.517 345.516 123.849 346.435 125.502C347.353 127.155 347.813 129.199 347.813 131.633C347.813 133.561 347.399 135.49 346.573 137.419C345.792 139.302 344.575 140.932 342.922 142.31C341.269 143.641 339.133 144.445 336.516 144.721C337.985 145.18 339.317 146.006 340.511 147.2C341.751 148.394 342.761 149.588 343.542 150.782C343.588 150.874 343.84 151.287 344.299 152.022C344.805 152.757 345.402 153.675 346.09 154.777C346.825 155.834 347.583 156.913 348.364 158.015C349.144 159.117 349.856 160.081 350.499 160.908C351.509 162.148 352.428 163.158 353.254 163.939C354.081 164.674 354.953 165.225 355.872 165.592C356.79 165.914 357.846 166.097 359.04 166.143V166.832H352.29C349.81 166.832 347.56 166.625 345.539 166.212C343.519 165.753 341.728 164.995 340.166 163.939C338.605 162.883 337.25 161.459 336.102 159.668C335.735 159.117 335.322 158.428 334.862 157.602C334.449 156.729 334.013 155.811 333.554 154.846C333.094 153.882 332.635 152.964 332.176 152.091C331.763 151.173 331.395 150.346 331.074 149.611C330.752 148.877 330.523 148.302 330.385 147.889C329.788 146.42 329.076 145.318 328.25 144.583C327.469 143.848 326.619 143.412 325.701 143.274V142.585C325.839 142.585 326.114 142.585 326.528 142.585C326.941 142.585 327.377 142.585 327.836 142.585C329.076 142.585 330.27 142.333 331.418 141.827C332.612 141.322 333.669 140.496 334.587 139.348C335.505 138.2 336.148 136.615 336.516 134.595C336.608 134.181 336.676 133.699 336.722 133.148C336.814 132.597 336.837 131.977 336.791 131.288C336.653 127.982 335.827 125.571 334.311 124.056C332.796 122.494 330.913 121.691 328.663 121.645C328.02 121.599 327.308 121.599 326.528 121.645C325.793 121.645 325.104 121.645 324.461 121.645C323.864 121.645 323.451 121.645 323.221 121.645C323.221 121.599 323.152 121.346 323.015 120.887C322.923 120.382 322.808 119.877 322.67 119.372C322.578 118.866 322.532 118.614 322.532 118.614ZM323.428 118.614V166.832H313.095V118.614H323.428ZM313.302 161.804V166.832H307.791V166.143C307.837 166.143 307.975 166.143 308.205 166.143C308.48 166.143 308.641 166.143 308.687 166.143C309.881 166.143 310.891 165.73 311.718 164.903C312.59 164.031 313.05 162.998 313.095 161.804H313.302ZM313.302 123.642H313.095C313.05 122.448 312.59 121.438 311.718 120.611C310.891 119.739 309.881 119.303 308.687 119.303C308.641 119.303 308.48 119.303 308.205 119.303C307.975 119.303 307.837 119.303 307.791 119.303V118.614H313.302V123.642ZM323.221 161.804H323.428C323.428 162.998 323.864 164.031 324.737 164.903C325.609 165.73 326.642 166.143 327.836 166.143C327.928 166.143 328.089 166.143 328.319 166.143C328.548 166.143 328.663 166.143 328.663 166.143V166.832H323.221V161.804ZM373.875 118.614V166.832H363.542V118.614H373.875ZM392.06 163.87L393.713 166.832H373.668V163.87H392.06ZM389.511 141.621V144.514H373.668V141.621H389.511ZM392.886 118.614V121.576H373.668V118.614H392.886ZM397.088 152.711L393.92 166.832H380.418L382.898 163.87C385.194 163.87 387.215 163.434 388.96 162.561C390.705 161.643 392.197 160.357 393.437 158.704C394.677 157.005 395.665 155.007 396.399 152.711H397.088ZM389.511 144.376V150.989H388.822V150.438C388.822 148.739 388.271 147.338 387.169 146.236C386.067 145.134 384.666 144.56 382.967 144.514V144.376H389.511ZM389.511 135.146V141.759H382.967V141.621C384.666 141.575 386.067 141.001 387.169 139.899C388.271 138.751 388.822 137.327 388.822 135.628V135.146H389.511ZM392.886 121.369V129.429H392.197V128.602C392.197 126.489 391.555 124.79 390.269 123.505C389.029 122.219 387.33 121.553 385.171 121.507V121.369H392.886ZM392.886 117.374V119.372L384.483 118.614C385.493 118.614 386.549 118.545 387.651 118.407C388.799 118.269 389.855 118.109 390.82 117.925C391.784 117.741 392.473 117.558 392.886 117.374ZM363.749 161.804V166.832H358.238V166.143C358.238 166.143 358.376 166.143 358.651 166.143C358.973 166.143 359.134 166.143 359.134 166.143C360.328 166.143 361.338 165.73 362.164 164.903C363.037 164.031 363.496 162.998 363.542 161.804H363.749ZM363.749 123.642H363.542C363.496 122.448 363.037 121.438 362.164 120.611C361.338 119.739 360.328 119.303 359.134 119.303C359.134 119.303 358.973 119.303 358.651 119.303C358.376 119.303 358.238 119.303 358.238 119.303V118.614H363.749V123.642ZM406.038 117.581L449.986 159.462L450.812 167.796L406.865 125.984L406.038 117.581ZM406.383 161.941V166.832H400.665V166.143C400.665 166.143 400.872 166.143 401.285 166.143C401.698 166.143 401.928 166.143 401.974 166.143C403.122 166.143 404.109 165.73 404.936 164.903C405.763 164.077 406.176 163.089 406.176 161.941H406.383ZM416.026 161.941C416.026 163.089 416.439 164.077 417.266 164.903C418.093 165.73 419.08 166.143 420.228 166.143C420.274 166.143 420.504 166.143 420.917 166.143C421.33 166.143 421.537 166.143 421.537 166.143V166.832H415.819V161.941H416.026ZM406.038 117.581L415.957 128.12L416.026 166.832H406.176V126.191C406.176 123.619 406.038 121.553 405.763 119.992C405.487 118.384 405.349 117.581 405.349 117.581H406.038ZM450.605 118.614V158.979C450.605 160.678 450.674 162.217 450.812 163.595C450.95 164.926 451.088 165.96 451.225 166.694C451.363 167.429 451.432 167.796 451.432 167.796H450.812L440.824 156.637V118.614H450.605ZM456.116 118.614V119.303C456.116 119.303 455.909 119.303 455.496 119.303C455.083 119.303 454.876 119.303 454.876 119.303C453.728 119.303 452.741 119.716 451.914 120.543C451.088 121.323 450.651 122.311 450.605 123.505H450.399V118.614H456.116ZM435.245 118.614H440.962V123.505H440.824C440.778 122.311 440.342 121.323 439.515 120.543C438.735 119.716 437.747 119.303 436.553 119.303C436.553 119.303 436.347 119.303 435.933 119.303C435.52 119.303 435.29 119.303 435.245 119.303V118.614ZM482.18 117.236L504.705 166.419H492.306L477.978 130.531L482.18 117.236ZM467.37 161.804C467.003 162.722 466.934 163.503 467.163 164.146C467.393 164.788 467.783 165.294 468.334 165.661C468.885 165.982 469.436 166.143 469.987 166.143H470.607V166.832H455.866V166.143C455.866 166.143 455.981 166.143 456.211 166.143C456.395 166.143 456.486 166.143 456.486 166.143C457.543 166.143 458.622 165.822 459.724 165.179C460.872 164.49 461.813 163.365 462.548 161.804H467.37ZM482.18 117.236L482.455 125.64L465.372 166.625H460.344L478.185 126.26C478.322 125.984 478.552 125.479 478.873 124.744C479.241 123.964 479.608 123.091 479.976 122.127C480.389 121.163 480.756 120.244 481.078 119.372C481.399 118.453 481.56 117.741 481.56 117.236H482.18ZM489.412 150.438V153.331H469.161V150.438H489.412ZM490.446 161.804H502.5C503.281 163.365 504.222 164.49 505.324 165.179C506.427 165.822 507.506 166.143 508.562 166.143C508.562 166.143 508.654 166.143 508.838 166.143C509.021 166.143 509.113 166.143 509.113 166.143V166.832H487.208V166.143H487.828C488.747 166.143 489.55 165.776 490.239 165.041C490.928 164.26 490.997 163.181 490.446 161.804Z" fill="white"/>
<path d="M255.295 214.71V189.117H265.392C267.325 189.117 268.974 189.463 270.341 190.154C271.715 190.837 272.761 191.808 273.477 193.066C274.202 194.316 274.564 195.786 274.564 197.477C274.564 199.177 274.198 200.639 273.465 201.864C272.732 203.08 271.669 204.013 270.278 204.663C268.895 205.313 267.221 205.637 265.254 205.637H258.494V201.289H264.38C265.413 201.289 266.271 201.147 266.954 200.864C267.637 200.581 268.145 200.156 268.479 199.589C268.82 199.023 268.991 198.319 268.991 197.477C268.991 196.627 268.82 195.911 268.479 195.328C268.145 194.745 267.633 194.303 266.941 194.003C266.258 193.695 265.396 193.541 264.355 193.541H260.706V214.71H255.295ZM269.116 203.063L275.477 214.71H269.503L263.28 203.063H269.116ZM292.464 214.71V189.117H309.71V193.578H297.875V199.677H308.822V204.138H297.875V210.249H309.76V214.71H292.464ZM341.971 196.477C341.871 195.469 341.442 194.686 340.684 194.128C339.926 193.57 338.897 193.291 337.598 193.291C336.715 193.291 335.969 193.416 335.361 193.666C334.753 193.907 334.286 194.245 333.961 194.678C333.645 195.111 333.486 195.603 333.486 196.153C333.47 196.611 333.565 197.011 333.774 197.352C333.99 197.694 334.286 197.99 334.661 198.24C335.036 198.481 335.469 198.694 335.961 198.877C336.452 199.052 336.977 199.202 337.535 199.327L339.834 199.877C340.951 200.126 341.976 200.46 342.909 200.876C343.842 201.293 344.65 201.805 345.333 202.413C346.016 203.022 346.545 203.738 346.92 204.563C347.303 205.388 347.499 206.333 347.507 207.399C347.499 208.966 347.099 210.324 346.308 211.473C345.525 212.615 344.392 213.502 342.909 214.135C341.434 214.76 339.655 215.072 337.573 215.072C335.507 215.072 333.707 214.756 332.174 214.123C330.65 213.489 329.458 212.552 328.6 211.311C327.75 210.061 327.305 208.516 327.263 206.675H332.499C332.557 207.533 332.803 208.249 333.236 208.824C333.678 209.391 334.265 209.82 334.998 210.111C335.74 210.394 336.577 210.536 337.51 210.536C338.427 210.536 339.222 210.403 339.897 210.136C340.58 209.87 341.109 209.499 341.484 209.024C341.859 208.549 342.046 208.003 342.046 207.387C342.046 206.812 341.876 206.329 341.534 205.937C341.201 205.546 340.709 205.213 340.059 204.938C339.418 204.663 338.631 204.413 337.698 204.188L334.911 203.488C332.753 202.963 331.049 202.143 329.8 201.026C328.55 199.91 327.929 198.406 327.938 196.515C327.929 194.965 328.342 193.612 329.175 192.454C330.016 191.296 331.17 190.392 332.636 189.742C334.103 189.092 335.769 188.767 337.635 188.767C339.535 188.767 341.192 189.092 342.609 189.742C344.033 190.392 345.141 191.296 345.933 192.454C346.724 193.612 347.132 194.953 347.157 196.477H341.971ZM388.742 201.913C388.742 204.704 388.213 207.079 387.155 209.037C386.105 210.994 384.672 212.49 382.856 213.523C381.048 214.548 379.015 215.06 376.757 215.06C374.483 215.06 372.442 214.543 370.634 213.51C368.826 212.477 367.397 210.982 366.348 209.024C365.298 207.066 364.773 204.696 364.773 201.913C364.773 199.123 365.298 196.748 366.348 194.79C367.397 192.833 368.826 191.341 370.634 190.317C372.442 189.284 374.483 188.767 376.757 188.767C379.015 188.767 381.048 189.284 382.856 190.317C384.672 191.341 386.105 192.833 387.155 194.79C388.213 196.748 388.742 199.123 388.742 201.913ZM383.256 201.913C383.256 200.106 382.985 198.581 382.443 197.34C381.91 196.098 381.156 195.157 380.181 194.516C379.207 193.874 378.065 193.553 376.757 193.553C375.449 193.553 374.308 193.874 373.333 194.516C372.359 195.157 371.6 196.098 371.059 197.34C370.526 198.581 370.259 200.106 370.259 201.913C370.259 203.721 370.526 205.246 371.059 206.487C371.6 207.729 372.359 208.67 373.333 209.311C374.308 209.953 375.449 210.274 376.757 210.274C378.065 210.274 379.207 209.953 380.181 209.311C381.156 208.67 381.91 207.729 382.443 206.487C382.985 205.246 383.256 203.721 383.256 201.913ZM406.826 214.71V189.117H416.923C418.856 189.117 420.506 189.463 421.872 190.154C423.246 190.837 424.292 191.808 425.008 193.066C425.733 194.316 426.096 195.786 426.096 197.477C426.096 199.177 425.729 200.639 424.996 201.864C424.263 203.08 423.201 204.013 421.809 204.663C420.426 205.313 418.752 205.637 416.786 205.637H410.025V201.289H415.911C416.944 201.289 417.802 201.147 418.485 200.864C419.168 200.581 419.677 200.156 420.01 199.589C420.351 199.023 420.522 198.319 420.522 197.477C420.522 196.627 420.351 195.911 420.01 195.328C419.677 194.745 419.164 194.303 418.473 194.003C417.79 193.695 416.927 193.541 415.886 193.541H412.237V214.71H406.826ZM420.647 203.063L427.008 214.71H421.035L414.811 203.063H420.647ZM443.021 193.578V189.117H464.04V193.578H456.205V214.71H450.856V193.578H443.021ZM495.461 196.477C495.362 195.469 494.932 194.686 494.174 194.128C493.416 193.57 492.387 193.291 491.088 193.291C490.205 193.291 489.459 193.416 488.851 193.666C488.243 193.907 487.776 194.245 487.451 194.678C487.135 195.111 486.976 195.603 486.976 196.153C486.96 196.611 487.055 197.011 487.264 197.352C487.48 197.694 487.776 197.99 488.151 198.24C488.526 198.481 488.959 198.694 489.451 198.877C489.942 199.052 490.467 199.202 491.025 199.327L493.325 199.877C494.441 200.126 495.466 200.46 496.399 200.876C497.332 201.293 498.14 201.805 498.823 202.413C499.506 203.022 500.035 203.738 500.41 204.563C500.793 205.388 500.989 206.333 500.997 207.399C500.989 208.966 500.589 210.324 499.798 211.473C499.015 212.615 497.882 213.502 496.399 214.135C494.924 214.76 493.145 215.072 491.063 215.072C488.997 215.072 487.197 214.756 485.664 214.123C484.14 213.489 482.948 212.552 482.09 211.311C481.24 210.061 480.795 208.516 480.753 206.675H485.989C486.047 207.533 486.293 208.249 486.726 208.824C487.168 209.391 487.755 209.82 488.488 210.111C489.23 210.394 490.067 210.536 491 210.536C491.917 210.536 492.712 210.403 493.387 210.136C494.07 209.87 494.599 209.499 494.974 209.024C495.349 208.549 495.536 208.003 495.536 207.387C495.536 206.812 495.366 206.329 495.024 205.937C494.691 205.546 494.199 205.213 493.55 204.938C492.908 204.663 492.121 204.413 491.188 204.188L488.401 203.488C486.243 202.963 484.54 202.143 483.29 201.026C482.04 199.91 481.42 198.406 481.428 196.515C481.42 194.965 481.832 193.612 482.665 192.454C483.506 191.296 484.66 190.392 486.127 189.742C487.593 189.092 489.259 188.767 491.125 188.767C493.025 188.767 494.683 189.092 496.099 189.742C497.523 190.392 498.631 191.296 499.423 192.454C500.214 193.612 500.623 194.953 500.648 196.477H495.461Z" fill="#DAA425"/>
</g>
<defs>
<clipPath id="clip0_296_48">
<rect width="510" height="240" fill="white"/>
</clipPath>
<clipPath id="clip1_296_48">
<rect width="237.963" height="240" fill="white"/>
</clipPath>
</defs>
</svg>
